<?xml version="1.0" encoding="utf-8"?>
<!-- Generator: Adobe Illustrator 24.2.1, SVG Export Plug-In . SVG Version: 6.00 Build 0)  -->
<svg width="150px" height="150px" version="1.1" id="Layer_1" xmlns="http://www.w3.org/2000/svg" xmlns:xlink="http://www.w3.org/1999/xlink" x="0px" y="0px"
	 viewBox="0 0 148.7 111.8" style="enable-background:new 0 0 148.7 111.8;" xml:space="preserve">
<style type="text/css">
	.st0{fill:#3D3C62;stroke:#3D3C62;stroke-width:0.15;stroke-miterlimit:10;}
	.st1{fill:#3D3C62;}
	.st2{fill:#8382BE;}
</style>
<g>
	<path class="st0" d="M4,107.7c-0.4-0.4-1-0.6-1.5-0.6c-1.4,0-2.1,1-2.1,2.2c0,1.2,0.7,2.1,2.1,2.1c0.5,0,1-0.2,1.4-0.6v-1.4H2.3
		v-0.3h2v1.8c-0.5,0.5-1.1,0.8-1.8,0.8c-1.6,0-2.4-1.2-2.4-2.5c0-1.5,1-2.5,2.4-2.5c0.6,0,1.2,0.2,1.7,0.7L4,107.7z"/>
	<path class="st0" d="M6.4,106.8v4.5h2.6v0.4h-3v-4.9H6.4z"/>
	<path class="st0" d="M15,109.2c0,1.3-0.8,2.5-2.4,2.5c-1.6,0-2.3-1.2-2.3-2.5c0-1.3,0.8-2.5,2.3-2.5C14.2,106.7,15,107.9,15,109.2z
		 M10.6,109.2c0,1.1,0.7,2.2,2,2.2c1.3,0,2-1.1,2-2.2c0-1.1-0.7-2.2-2-2.2S10.6,108.1,10.6,109.2z"/>
	<path class="st0" d="M20.1,108.1c0,0.5-0.3,0.9-0.8,1c0.6,0.2,0.9,0.7,0.9,1.2c0,1-0.9,1.3-1.7,1.3c-0.7,0-1.2,0-1.9,0v-4.9
		c0.7,0,1.2,0,1.9,0C19.4,106.8,20.1,107.2,20.1,108.1z M17,109h1.6c0.6,0,1.1-0.2,1.1-0.9c0-0.7-0.6-1-1.2-1H17V109z M17,111.3h1.6
		c0.6,0,1.3-0.1,1.3-0.9c0-0.8-0.7-1-1.3-1c-0.6,0-1,0-1.6,0V111.3z"/>
	<path class="st0" d="M25.7,111.7l-0.5-1.2h-2.8l-0.5,1.2h-0.4l2.1-4.9H24l2.1,4.9H25.7z M25.1,110.1l-1.3-3l-1.3,3H25.1z"/>
	<path class="st0" d="M28,106.8v4.5h2.6v0.4h-3v-4.9H28z"/>
	<path class="st0" d="M38.6,111.7l-0.5-1.2h-2.8l-0.5,1.2h-0.4l2.1-4.9h0.4l2.1,4.9H38.6z M37.9,110.1l-1.3-3l-1.3,3H37.9z"/>
	<path class="st0" d="M44.4,109.2c0,1.2-0.7,2.5-2.4,2.5c-0.5,0-1.1,0-1.6,0v-4.9c0.5,0,1.1,0,1.6,0C43.7,106.8,44.4,108,44.4,109.2
		z M40.9,107.2v4.2h1.2c1.4,0,2-1.1,2-2.1c0-1-0.7-2-2-2H40.9z"/>
	<path class="st0" d="M50,109.2c0,1.2-0.7,2.5-2.4,2.5c-0.5,0-1.1,0-1.6,0v-4.9c0.5,0,1.1,0,1.6,0C49.2,106.8,50,108,50,109.2z
		 M46.5,107.2v4.2h1.2c1.4,0,2-1.1,2-2.1c0-1-0.7-2-2-2H46.5z"/>
	<path class="st0" d="M51.8,111.7v-4.9h0.4v4.9H51.8z"/>
	<path class="st0" d="M55.6,107.1h-1.7v-0.3h3.7v0.3h-1.7v4.6h-0.4V107.1z"/>
	<path class="st0" d="M59.2,111.7v-4.9h0.4v4.9H59.2z"/>
	<path class="st0" d="M65.3,106.8l-1.9,4.9H63l-1.9-4.9h0.4l1.7,4.5l1.7-4.5H65.3z"/>
	<path class="st0" d="M67.1,109.1h2.7v0.3h-2.7v1.9H70v0.4h-3.3v-4.9H70v0.4h-2.9V109.1z"/>
	<path class="st0" d="M77.4,107.7c-0.3-0.6-0.9-0.7-1.4-0.7c-0.5,0-1.4,0.2-1.4,1c0,0.6,0.6,0.8,1.4,0.9c0.9,0.2,1.8,0.4,1.8,1.4
		c0,1.1-1.1,1.4-1.8,1.4c-0.7,0-1.6-0.3-1.9-1.1l0.3-0.2c0.3,0.6,1,0.9,1.6,0.9c0.6,0,1.5-0.2,1.5-1c0-0.7-0.8-0.9-1.5-1
		c-0.9-0.2-1.7-0.4-1.7-1.3c0-1,1-1.4,1.8-1.4c0.7,0,1.2,0.1,1.7,0.8L77.4,107.7z"/>
	<path class="st0" d="M84,109.2c0,1.3-0.8,2.5-2.4,2.5c-1.6,0-2.3-1.2-2.3-2.5c0-1.3,0.8-2.5,2.3-2.5C83.2,106.7,84,107.9,84,109.2z
		 M79.6,109.2c0,1.1,0.7,2.2,2,2.2c1.3,0,2-1.1,2-2.2c0-1.1-0.7-2.2-2-2.2S79.6,108.1,79.6,109.2z"/>
	<path class="st0" d="M86,106.8v4.5h2.6v0.4h-3v-4.9H86z"/>
	<path class="st0" d="M93.5,106.8v3c0,2.6-3.6,2.6-3.6,0v-3h0.4v3c0,2.1,2.9,2.1,2.9,0v-3H93.5z"/>
	<path class="st0" d="M96.7,107.1H95v-0.3h3.7v0.3H97v4.6h-0.4V107.1z"/>
	<path class="st0" d="M100.3,111.7v-4.9h0.4v4.9H100.3z"/>
	<path class="st0" d="M107.1,109.2c0,1.3-0.8,2.5-2.3,2.5s-2.3-1.2-2.3-2.5c0-1.3,0.8-2.5,2.3-2.5
		C106.4,106.7,107.1,107.9,107.1,109.2z M102.8,109.2c0,1.1,0.7,2.2,2,2.2c1.3,0,2-1.1,2-2.2c0-1.1-0.7-2.2-2-2.2
		S102.8,108.1,102.8,109.2z"/>
	<path class="st0" d="M109,106.8l3.1,4v-4h0.4v4.9h-0.1l-3.1-4v4h-0.4v-4.9H109z"/>
	<path class="st0" d="M117.5,107.7c-0.3-0.6-0.9-0.7-1.4-0.7c-0.5,0-1.4,0.2-1.4,1c0,0.6,0.6,0.8,1.4,0.9c0.9,0.2,1.8,0.4,1.8,1.4
		c0,1.1-1.1,1.4-1.8,1.4c-0.7,0-1.6-0.3-1.9-1.1l0.3-0.2c0.3,0.6,1,0.9,1.6,0.9c0.6,0,1.5-0.2,1.5-1c0-0.7-0.8-0.9-1.5-1
		c-0.9-0.2-1.7-0.4-1.7-1.3c0-1,1-1.4,1.8-1.4c0.7,0,1.2,0.1,1.7,0.8L117.5,107.7z"/>
</g>
<path class="st1" d="M57.2,69.3v10.6c-1.8-1.1-4-1.8-6.3-1.8c-6.7,0-12.1,5.4-12.1,12.1s5.4,12.1,12.1,12.1c2.3,0,4.5-0.7,6.3-1.8
	v1.1H64V69.3H57.2z M50.9,95.9c-3.2,0-5.8-2.6-5.8-5.8s2.6-5.8,5.8-5.8s5.8,2.6,5.8,5.8S54.1,95.9,50.9,95.9z"/>
<path class="st1" d="M84.4,69.3v10.6c-1.8-1.1-4-1.8-6.3-1.8c-6.7,0-12.1,5.4-12.1,12.1s5.4,12.1,12.1,12.1c2.3,0,4.5-0.7,6.3-1.8
	v1.1h6.8V69.3H84.4z M78.1,95.9c-3.2,0-5.8-2.6-5.8-5.8s2.6-5.8,5.8-5.8c3.2,0,5.8,2.6,5.8,5.8S81.3,95.9,78.1,95.9z"/>
<path class="st1" d="M31.9,101.5h8l-12-32.2H22L4.1,101.5h7.8l4.3-7.7h13.2L31.9,101.5z M19.6,87.9l5.1-9.1l2.9,9.1H19.6z"/>
<g>
	<path class="st1" d="M109.1,28.1l-14,24.2c-1.4,2.4-3.9,3.8-6.6,3.8c0,0,0,0,0,0l-23.5,0c-2.7,0-5.3-1.5-6.6-3.8L46.6,31.9
		c-1.4-2.4-1.4-5.3,0-7.7L60.6,0l2.3,4L50,26.2c-0.7,1.1-0.7,2.5,0,3.7l11.7,20.4c0.7,1.1,1.9,1.8,3.2,1.8l23.5,0c0,0,0,0,0,0
		c1.3,0,2.5-0.7,3.2-1.8l12.8-22.2L109.1,28.1z"/>
</g>
<g>
	<polygon class="st1" points="79.3,29.5 85.1,42.9 76.8,30.8 70.8,38.5 74.3,29.4 59.8,27.8 74.4,26.6 68.5,13.2 76.9,25.2 
		87.7,9.3 79.3,26.6 93.8,28.2 	"/>
</g>
<g>
	<path class="st2" d="M120.9,89.1c0,1.9-0.3,3.7-0.9,5.3c-0.6,1.6-1.4,3-2.6,4.2c-1.1,1.2-2.6,2.1-4.3,2.8c-1.7,0.7-3.7,1-5.9,1
		c-2.2,0-4.2-0.3-5.9-1c-1.7-0.7-3.1-1.6-4.3-2.8c-1.1-1.2-2-2.6-2.6-4.2c-0.6-1.6-0.9-3.4-0.9-5.3V69.3h7.1v19.5
		c0,1,0.2,1.9,0.5,2.8c0.3,0.8,0.8,1.6,1.3,2.2c0.6,0.6,1.3,1.1,2.1,1.5c0.8,0.3,1.7,0.5,2.6,0.5s1.8-0.2,2.6-0.5
		c0.8-0.3,1.5-0.8,2-1.5c0.6-0.6,1-1.4,1.3-2.2c0.3-0.8,0.5-1.8,0.5-2.8V69.3h7.1V89.1z"/>
	<path class="st2" d="M136.6,78.7c-2.3,0-4.5,0.7-6.3,1.8v-1.1h-6.8v32.3h6.8v-10.6c1.8,1.1,4,1.8,6.3,1.8c6.7,0,12.1-5.4,12.1-12.1
		S143.3,78.7,136.6,78.7z M136.6,96.6c-3.2,0-5.8-2.6-5.8-5.8s2.6-5.8,5.8-5.8s5.8,2.6,5.8,5.8S139.8,96.6,136.6,96.6z"/>
</g>
<g>
	<path class="st2" d="M104.5,28.1L90.7,4L62.9,4l-2.3-4L93,0l16.2,28.1L104.5,28.1z"/>
</g>
</svg>
